# WaveFront *.obj file (generated by Autodesk ATF)

mtllib fc83a49d-ecb5-4b04-b370-f00ad433d318.mtl

g Body1

v 5.289179 20.000000 0.000000
v 5.108954 18.631060 0.000000
v 4.580563 17.355411 0.000000
v 3.740014 16.259986 0.000000
v 2.644589 15.419437 0.000000
v 1.368940 14.891046 0.000000
v -0.000000 14.710821 0.000000
v -1.368940 14.891046 0.000000
v -2.644589 15.419437 0.000000
v -3.740014 16.259986 0.000000
v -4.580563 17.355411 0.000000
v -5.108954 18.631060 0.000000
v -5.289179 20.000000 0.000000
v -5.108954 21.368940 0.000000
v -4.580563 22.644589 0.000000
v -3.740014 23.740014 0.000000
v -2.644589 24.580563 0.000000
v -1.368940 25.108954 0.000000
v -0.000000 25.289179 0.000000
v 1.368940 25.108954 0.000000
v 2.644589 24.580563 0.000000
v 3.740014 23.740014 0.000000
v 4.580563 22.644589 0.000000
v 5.108954 21.368940 0.000000
v 5.289179 20.000000 1.000000
v 5.108954 21.368940 1.000000
v 4.580563 22.644589 1.000000
v 3.740014 23.740014 1.000000
v 2.644589 24.580563 1.000000
v 1.368940 25.108954 1.000000
v -0.000000 25.289179 1.000000
v -1.368940 25.108954 1.000000
v -2.644589 24.580563 1.000000
v -3.740014 23.740014 1.000000
v -4.580563 22.644589 1.000000
v -5.108954 21.368940 1.000000
v -5.289179 20.000000 1.000000
v -5.108954 18.631060 1.000000
v -4.580563 17.355411 1.000000
v -3.740014 16.259986 1.000000
v -2.644589 15.419437 1.000000
v -1.368940 14.891046 1.000000
v -0.000000 14.710821 1.000000
v 1.368940 14.891046 1.000000
v 2.644589 15.419437 1.000000
v 3.740014 16.259986 1.000000
v 4.580563 17.355411 1.000000
v 5.108954 18.631060 1.000000
v 38.000000 -28.000000 0.000000
v -38.000000 -28.000000 0.000000
v -38.000000 28.000000 0.000000
v 38.000000 28.000000 0.000000
v -36.500000 26.500000 0.000000
v -36.500000 -26.500000 0.000000
v 36.500000 -26.500000 0.000000
v 36.500000 26.500000 0.000000
v -35.500000 25.500000 0.000000
v 35.500000 25.500000 0.000000
v 35.500000 -25.500000 0.000000
v -35.500000 -25.500000 0.000000
v -38.000000 -28.000000 1.000000
v -38.000000 28.000000 1.000000
v 38.000000 28.000000 1.000000
v 38.000000 -28.000000 1.000000
v -35.500000 25.500000 -2.000000
v 35.500000 25.500000 -2.000000
v 35.500000 -25.500000 -2.000000
v -35.500000 -25.500000 -2.000000
v -36.500000 26.500000 -2.000000
v -36.500000 -26.500000 -2.000000
v 36.500000 -26.500000 -2.000000
v 36.500000 26.500000 -2.000000
vt 0.100000 -1.523174 0.000000
vt 0.000000 -1.523174 0.000000
vt 0.100000 -1.661644 0.000000
vt 0.000000 -1.661644 0.000000
vt 0.100000 1.661644 0.000000
vt 0.000000 1.661644 0.000000
vt 0.100000 1.523174 0.000000
vt 0.000000 1.523174 0.000000
vt 0.100000 1.384704 0.000000
vt 0.000000 1.384704 0.000000
vt 0.100000 1.246233 0.000000
vt 0.000000 1.246233 0.000000
vt 0.100000 1.107763 0.000000
vt 0.000000 1.107763 0.000000
vt 0.100000 0.969293 0.000000
vt 0.000000 0.969293 0.000000
vt 0.100000 0.830822 0.000000
vt 0.000000 0.830822 0.000000
vt 0.100000 0.692352 0.000000
vt 0.000000 0.692352 0.000000
vt 0.100000 0.553881 0.000000
vt 0.000000 0.553881 0.000000
vt 0.100000 0.415411 0.000000
vt 0.000000 0.415411 0.000000
vt 0.100000 0.276941 0.000000
vt 0.000000 0.276941 0.000000
vt 0.100000 0.138470 0.000000
vt 0.000000 0.138470 0.000000
vt 0.100000 0.000000 0.000000
vt 0.000000 0.000000 0.000000
vt 0.100000 -0.138470 0.000000
vt -0.000000 -0.138470 0.000000
vt 0.100000 -0.276941 0.000000
vt -0.000000 -0.276941 0.000000
vt 0.100000 -0.415411 0.000000
vt -0.000000 -0.415411 0.000000
vt 0.100000 -0.553881 0.000000
vt -0.000000 -0.553881 0.000000
vt 0.100000 -0.692352 0.000000
vt -0.000000 -0.692352 0.000000
vt 0.100000 -0.830822 0.000000
vt -0.000000 -0.830822 0.000000
vt 0.100000 -0.969293 0.000000
vt 0.000000 -0.969293 0.000000
vt 0.100000 -1.107763 0.000000
vt 0.000000 -1.107763 0.000000
vt 0.100000 -1.246233 0.000000
vt 0.000000 -1.246233 0.000000
vt 0.100000 -1.384704 0.000000
vt 0.000000 -1.384704 0.000000
vt 3.800000 -2.800000 0.000000
vt -3.650000 -2.650000 0.000000
vt -3.800000 -2.800000 0.000000
vt -3.650000 2.650000 0.000000
vt -3.800000 2.800000 0.000000
vt 3.650000 2.650000 0.000000
vt 3.800000 2.800000 0.000000
vt 3.650000 -2.650000 0.000000
vt -0.510895 1.863106 0.000000
vt -0.528918 2.000000 0.000000
vt -3.550000 2.550000 0.000000
vt -0.510895 2.136894 0.000000
vt -0.458056 2.264459 0.000000
vt -0.374001 2.374001 0.000000
vt -0.264459 2.458056 0.000000
vt -0.136894 2.510895 0.000000
vt 0.000000 2.528918 0.000000
vt 3.550000 2.550000 0.000000
vt 0.136894 2.510895 0.000000
vt 0.264459 2.458056 0.000000
vt 0.374001 2.374001 0.000000
vt 0.458056 2.264459 0.000000
vt 0.510895 2.136894 0.000000
vt 0.528918 2.000000 0.000000
vt 0.510895 1.863106 0.000000
vt 0.458056 1.735541 0.000000
vt 0.374001 1.625999 0.000000
vt 3.550000 -2.550000 0.000000
vt 0.264459 1.541944 0.000000
vt 0.136894 1.489105 0.000000
vt 0.000000 1.471082 0.000000
vt -3.550000 -2.550000 0.000000
vt -0.136894 1.489105 0.000000
vt -0.264459 1.541944 0.000000
vt -0.374001 1.625999 0.000000
vt -0.458056 1.735541 0.000000
vt -0.000000 0.000000 0.000000
vt 5.600000 0.000000 0.000000
vt -0.000000 0.100000 0.000000
vt 5.600000 0.100000 0.000000
vt -0.000000 0.000000 0.000000
vt 7.600000 0.000000 0.000000
vt -0.000000 0.100000 0.000000
vt 7.600000 0.100000 0.000000
vt 0.000000 0.000000 0.000000
vt 5.600000 0.000000 0.000000
vt 0.000000 0.100000 0.000000
vt 5.600000 0.100000 0.000000
vt 0.000000 0.000000 0.000000
vt 7.600000 0.000000 0.000000
vt 0.000000 0.100000 0.000000
vt 7.600000 0.100000 0.000000
vt 0.510895 2.136894 0.000000
vt 0.528918 2.000000 0.000000
vt 3.800000 2.800000 0.000000
vt 0.510895 1.863106 0.000000
vt 0.458056 1.735541 0.000000
vt 0.374001 1.625999 0.000000
vt 3.800000 -2.800000 0.000000
vt 0.264459 1.541944 0.000000
vt 0.136894 1.489105 0.000000
vt -0.000000 1.471082 0.000000
vt -3.800000 -2.800000 0.000000
vt -0.136894 1.489105 0.000000
vt -0.264459 1.541944 0.000000
vt -0.374001 1.625999 0.000000
vt -3.800000 2.800000 0.000000
vt -0.458056 1.735541 0.000000
vt -0.510895 1.863106 0.000000
vt -0.528918 2.000000 0.000000
vt -0.510895 2.136894 0.000000
vt -0.458056 2.264459 0.000000
vt -0.374001 2.374001 0.000000
vt -0.264459 2.458056 0.000000
vt -0.136894 2.510895 0.000000
vt -0.000000 2.528918 0.000000
vt 0.136894 2.510895 0.000000
vt 0.264459 2.458056 0.000000
vt 0.374001 2.374001 0.000000
vt 0.458056 2.264459 0.000000
vt -0.000000 0.000000 0.000000
vt 7.100000 0.000000 0.000000
vt 0.000000 0.200000 0.000000
vt 7.100000 0.200000 0.000000
vt 0.000000 0.000000 0.000000
vt 5.100000 0.000000 0.000000
vt 0.000000 0.200000 0.000000
vt 5.100000 0.200000 0.000000
vt 0.000000 0.000000 0.000000
vt 7.100000 0.000000 0.000000
vt 0.000000 0.200000 0.000000
vt 7.100000 0.200000 0.000000
vt -0.000000 0.000000 0.000000
vt 5.100000 0.000000 0.000000
vt 0.000000 0.200000 0.000000
vt 5.100000 0.200000 0.000000
vt 0.000000 0.000000 0.000000
vt 5.300000 0.000000 0.000000
vt 0.000000 0.200000 0.000000
vt 5.300000 0.200000 0.000000
vt 0.000000 0.000000 0.000000
vt 7.300000 0.000000 0.000000
vt -0.000000 0.200000 0.000000
vt 7.300000 0.200000 0.000000
vt 0.000000 0.000000 0.000000
vt 5.300000 0.000000 0.000000
vt -0.000000 0.200000 0.000000
vt 5.300000 0.200000 0.000000
vt 0.000000 0.000000 0.000000
vt 7.300000 0.000000 0.000000
vt 0.000000 0.200000 0.000000
vt 7.300000 0.200000 0.000000
vt 3.550000 -2.550000 0.000000
vt 3.650000 -2.650000 0.000000
vt 3.550000 2.550000 0.000000
vt 3.650000 2.650000 0.000000
vt -3.650000 2.650000 0.000000
vt -3.550000 -2.550000 0.000000
vt -3.650000 -2.650000 0.000000
vt -3.550000 2.550000 0.000000
vn -0.096593 0.025882 0.000000
vn -0.096593 0.025882 0.000000
vn -0.100000 0.000000 0.000000
vn -0.100000 0.000000 0.000000
vn -0.096593 -0.025882 0.000000
vn -0.096593 -0.025882 0.000000
vn -0.086603 -0.050000 0.000000
vn -0.086603 -0.050000 0.000000
vn -0.070711 -0.070711 0.000000
vn -0.070711 -0.070711 0.000000
vn -0.050000 -0.086603 0.000000
vn -0.050000 -0.086603 0.000000
vn -0.025882 -0.096593 0.000000
vn -0.025882 -0.096593 0.000000
vn 0.000000 -0.100000 0.000000
vn 0.000000 -0.100000 0.000000
vn 0.025882 -0.096593 0.000000
vn 0.025882 -0.096593 0.000000
vn 0.050000 -0.086603 0.000000
vn 0.050000 -0.086603 0.000000
vn 0.070711 -0.070711 0.000000
vn 0.070711 -0.070711 0.000000
vn 0.086603 -0.050000 0.000000
vn 0.086603 -0.050000 0.000000
vn 0.096593 -0.025882 0.000000
vn 0.096593 -0.025882 0.000000
vn 0.100000 -0.000000 0.000000
vn 0.100000 -0.000000 0.000000
vn 0.096593 0.025882 0.000000
vn 0.096593 0.025882 0.000000
vn 0.086603 0.050000 0.000000
vn 0.086603 0.050000 0.000000
vn 0.070711 0.070711 0.000000
vn 0.070711 0.070711 0.000000
vn 0.050000 0.086603 0.000000
vn 0.050000 0.086603 0.000000
vn 0.025882 0.096593 0.000000
vn 0.025882 0.096593 0.000000
vn 0.000000 0.100000 0.000000
vn 0.000000 0.100000 0.000000
vn -0.025882 0.096593 0.000000
vn -0.025882 0.096593 0.000000
vn -0.050000 0.086603 0.000000
vn -0.050000 0.086603 0.000000
vn -0.070711 0.070711 0.000000
vn -0.070711 0.070711 0.000000
vn -0.086603 0.050000 0.000000
vn -0.086603 0.050000 0.000000
vn -0.000000 0.000000 -0.100000
vn -0.000000 0.000000 -0.100000
vn -0.000000 0.000000 -0.100000
vn -0.000000 0.000000 -0.100000
vn -0.000000 0.000000 -0.100000
vn -0.000000 0.000000 -0.100000
vn -0.000000 0.000000 -0.100000
vn -0.000000 0.000000 -0.100000
vn -0.000000 0.000000 -0.100000
vn -0.000000 0.000000 -0.100000
vn -0.000000 0.000000 -0.100000
vn -0.000000 0.000000 -0.100000
vn -0.000000 0.000000 -0.100000
vn -0.000000 0.000000 -0.100000
vn -0.000000 0.000000 -0.100000
vn -0.000000 0.000000 -0.100000
vn -0.000000 0.000000 -0.100000
vn -0.000000 0.000000 -0.100000
vn -0.000000 0.000000 -0.100000
vn -0.000000 0.000000 -0.100000
vn -0.000000 0.000000 -0.100000
vn -0.000000 0.000000 -0.100000
vn -0.000000 0.000000 -0.100000
vn -0.000000 0.000000 -0.100000
vn -0.000000 0.000000 -0.100000
vn -0.000000 0.000000 -0.100000
vn -0.000000 0.000000 -0.100000
vn -0.000000 0.000000 -0.100000
vn -0.000000 0.000000 -0.100000
vn -0.000000 0.000000 -0.100000
vn -0.000000 0.000000 -0.100000
vn -0.000000 0.000000 -0.100000
vn -0.000000 0.000000 -0.100000
vn -0.000000 0.000000 -0.100000
vn -0.000000 0.000000 -0.100000
vn -0.000000 0.000000 -0.100000
vn -0.100000 0.000000 0.000000
vn -0.100000 0.000000 0.000000
vn -0.100000 0.000000 0.000000
vn -0.100000 0.000000 0.000000
vn 0.000000 0.100000 0.000000
vn 0.000000 0.100000 0.000000
vn 0.000000 0.100000 0.000000
vn 0.000000 0.100000 0.000000
vn 0.100000 0.000000 0.000000
vn 0.100000 0.000000 0.000000
vn 0.100000 0.000000 0.000000
vn 0.100000 0.000000 0.000000
vn 0.000000 -0.100000 0.000000
vn 0.000000 -0.100000 0.000000
vn 0.000000 -0.100000 0.000000
vn 0.000000 -0.100000 0.000000
vn 0.000000 0.000000 0.100000
vn 0.000000 0.000000 0.100000
vn 0.000000 0.000000 0.100000
vn 0.000000 0.000000 0.100000
vn 0.000000 0.000000 0.100000
vn 0.000000 0.000000 0.100000
vn 0.000000 0.000000 0.100000
vn 0.000000 0.000000 0.100000
vn 0.000000 0.000000 0.100000
vn 0.000000 0.000000 0.100000
vn 0.000000 0.000000 0.100000
vn 0.000000 0.000000 0.100000
vn 0.000000 0.000000 0.100000
vn 0.000000 0.000000 0.100000
vn 0.000000 0.000000 0.100000
vn 0.000000 0.000000 0.100000
vn 0.000000 0.000000 0.100000
vn 0.000000 0.000000 0.100000
vn 0.000000 0.000000 0.100000
vn 0.000000 0.000000 0.100000
vn 0.000000 0.000000 0.100000
vn 0.000000 0.000000 0.100000
vn 0.000000 0.000000 0.100000
vn 0.000000 0.000000 0.100000
vn 0.000000 0.000000 0.100000
vn 0.000000 0.000000 0.100000
vn 0.000000 0.000000 0.100000
vn 0.000000 0.000000 0.100000
vn 0.000000 -0.100000 0.000000
vn 0.000000 -0.100000 0.000000
vn 0.000000 -0.100000 0.000000
vn 0.000000 -0.100000 0.000000
vn -0.100000 0.000000 0.000000
vn -0.100000 0.000000 0.000000
vn -0.100000 0.000000 0.000000
vn -0.100000 0.000000 0.000000
vn 0.000000 0.100000 0.000000
vn 0.000000 0.100000 0.000000
vn 0.000000 0.100000 0.000000
vn 0.000000 0.100000 0.000000
vn 0.100000 -0.000000 0.000000
vn 0.100000 -0.000000 0.000000
vn 0.100000 -0.000000 0.000000
vn 0.100000 -0.000000 0.000000
vn -0.100000 0.000000 0.000000
vn -0.100000 0.000000 0.000000
vn -0.100000 0.000000 0.000000
vn -0.100000 0.000000 0.000000
vn 0.000000 -0.100000 0.000000
vn 0.000000 -0.100000 0.000000
vn 0.000000 -0.100000 0.000000
vn 0.000000 -0.100000 0.000000
vn 0.100000 0.000000 0.000000
vn 0.100000 0.000000 0.000000
vn 0.100000 0.000000 0.000000
vn 0.100000 0.000000 0.000000
vn 0.000000 0.100000 0.000000
vn 0.000000 0.100000 0.000000
vn 0.000000 0.100000 0.000000
vn 0.000000 0.100000 0.000000
vn 0.000000 0.000000 -0.100000
vn 0.000000 0.000000 -0.100000
vn 0.000000 0.000000 -0.100000
vn 0.000000 0.000000 -0.100000
vn 0.000000 0.000000 -0.100000
vn 0.000000 0.000000 -0.100000
vn 0.000000 0.000000 -0.100000
vn 0.000000 0.000000 -0.100000
usemtl Steel_-_Satin
f 2/1/1 48/2/2 1/3/3
f 1/3/3 48/2/2 25/4/4
f 1/5/3 25/6/4 24/7/5
f 24/7/5 25/6/4 26/8/6
f 24/7/5 26/8/6 23/9/7
f 23/9/7 26/8/6 27/10/8
f 23/9/7 27/10/8 22/11/9
f 22/11/9 27/10/8 28/12/10
f 22/11/9 28/12/10 21/13/11
f 21/13/11 28/12/10 29/14/12
f 21/13/11 29/14/12 20/15/13
f 20/15/13 29/14/12 30/16/14
f 20/15/13 30/16/14 19/17/15
f 19/17/15 30/16/14 31/18/16
f 19/17/15 31/18/16 18/19/17
f 18/19/17 31/18/16 32/20/18
f 18/19/17 32/20/18 17/21/19
f 17/21/19 32/20/18 33/22/20
f 17/21/19 33/22/20 16/23/21
f 16/23/21 33/22/20 34/24/22
f 16/23/21 34/24/22 15/25/23
f 15/25/23 34/24/22 35/26/24
f 15/25/23 35/26/24 14/27/25
f 14/27/25 35/26/24 36/28/26
f 14/27/25 36/28/26 13/29/27
f 13/29/27 36/28/26 37/30/28
f 13/29/27 37/30/28 12/31/29
f 12/31/29 37/30/28 38/32/30
f 12/31/29 38/32/30 11/33/31
f 11/33/31 38/32/30 39/34/32
f 11/33/31 39/34/32 10/35/33
f 10/35/33 39/34/32 40/36/34
f 10/35/33 40/36/34 9/37/35
f 9/37/35 40/36/34 41/38/36
f 9/37/35 41/38/36 8/39/37
f 8/39/37 41/38/36 42/40/38
f 8/39/37 42/40/38 7/41/39
f 7/41/39 42/40/38 43/42/40
f 7/41/39 43/42/40 6/43/41
f 6/43/41 43/42/40 44/44/42
f 6/43/41 44/44/42 5/45/43
f 5/45/43 44/44/42 45/46/44
f 5/45/43 45/46/44 4/47/45
f 4/47/45 45/46/44 46/48/46
f 4/47/45 46/48/46 3/49/47
f 3/49/47 46/48/46 47/50/48
f 3/49/47 47/50/48 2/1/1
f 2/1/1 47/50/48 48/2/2
f 50/51/49 55/52/50 49/53/51
f 49/53/51 55/52/50 56/54/52
f 49/53/51 56/54/52 52/55/53
f 52/55/53 56/54/52 53/56/54
f 52/55/53 53/56/54 51/57/55
f 51/57/55 53/56/54 50/51/49
f 50/51/49 53/56/54 54/58/56
f 50/51/49 54/58/56 55/52/50
f 2/59/57 1/60/58 58/61/59
f 58/61/59 1/60/58 24/62/60
f 58/61/59 24/62/60 23/63/61
f 23/63/61 22/64/62 58/61/59
f 58/61/59 22/64/62 21/65/63
f 58/61/59 21/65/63 20/66/64
f 20/66/64 19/67/65 58/61/59
f 58/61/59 19/67/65 57/68/66
f 57/68/66 19/67/65 18/69/67
f 57/68/66 18/69/67 17/70/68
f 17/70/68 16/71/69 57/68/66
f 57/68/66 16/71/69 15/72/70
f 57/68/66 15/72/70 14/73/71
f 14/73/71 13/74/72 57/68/66
f 57/68/66 13/74/72 12/75/73
f 57/68/66 12/75/73 11/76/74
f 11/76/74 10/77/75 57/68/66
f 57/68/66 10/77/75 60/78/76
f 60/78/76 10/77/75 9/79/77
f 60/78/76 9/79/77 8/80/78
f 8/80/78 7/81/79 60/78/76
f 60/78/76 7/81/79 59/82/80
f 59/82/80 7/81/79 6/83/81
f 59/82/80 6/83/81 5/84/82
f 5/84/82 4/85/83 59/82/80
f 59/82/80 4/85/83 58/61/59
f 58/61/59 4/85/83 3/86/84
f 58/61/59 3/86/84 2/59/57
f 51/87/85 50/88/86 62/89/87
f 62/89/87 50/88/86 61/90/88
f 52/91/89 51/92/90 63/93/91
f 63/93/91 51/92/90 62/94/92
f 49/95/93 52/96/94 64/97/95
f 64/97/95 52/96/94 63/98/96
f 50/99/97 49/100/98 61/101/99
f 61/101/99 49/100/98 64/102/100
f 26/103/101 25/104/102 63/105/103
f 63/105/103 25/104/102 48/106/104
f 63/105/103 48/106/104 47/107/105
f 47/107/105 46/108/106 63/105/103
f 63/105/103 46/108/106 64/109/107
f 64/109/107 46/108/106 45/110/108
f 64/109/107 45/110/108 44/111/109
f 44/111/109 43/112/110 64/109/107
f 64/109/107 43/112/110 61/113/111
f 61/113/111 43/112/110 42/114/112
f 61/113/111 42/114/112 41/115/113
f 41/115/113 40/116/114 61/113/111
f 61/113/111 40/116/114 62/117/115
f 62/117/115 40/116/114 39/118/116
f 62/117/115 39/118/116 38/119/117
f 38/119/117 37/120/118 62/117/115
f 62/117/115 37/120/118 36/121/119
f 62/117/115 36/121/119 35/122/120
f 35/122/120 34/123/121 62/117/115
f 62/117/115 34/123/121 33/124/122
f 62/117/115 33/124/122 32/125/123
f 32/125/123 31/126/124 62/117/115
f 62/117/115 31/126/124 63/105/103
f 63/105/103 31/126/124 30/127/125
f 63/105/103 30/127/125 29/128/126
f 29/128/126 28/129/127 63/105/103
f 63/105/103 28/129/127 27/130/128
f 63/105/103 27/130/128 26/103/101
f 58/131/129 57/132/130 66/133/131
f 66/133/131 57/132/130 65/134/132
f 59/135/133 58/136/134 67/137/135
f 67/137/135 58/136/134 66/138/136
f 60/139/137 59/140/138 68/141/139
f 68/141/139 59/140/138 67/142/140
f 57/143/141 60/144/142 65/145/143
f 65/145/143 60/144/142 68/146/144
f 54/147/145 53/148/146 70/149/147
f 70/149/147 53/148/146 69/150/148
f 55/151/149 54/152/150 71/153/151
f 71/153/151 54/152/150 70/154/152
f 56/155/153 55/156/154 72/157/155
f 72/157/155 55/156/154 71/158/156
f 53/159/157 56/160/158 69/161/159
f 69/161/159 56/160/158 72/162/160
f 68/163/161 70/164/162 65/165/163
f 65/165/163 70/164/162 69/166/164
f 65/165/163 69/166/164 72/167/165
f 68/163/161 67/168/166 70/164/162
f 70/164/162 67/168/166 71/169/167
f 71/169/167 67/168/166 66/170/168
f 71/169/167 66/170/168 72/167/165
f 72/167/165 66/170/168 65/165/163
# 72 vertices
# 170 texture params
# 168 normals
# 144 facets

# 1 groups
