# WaveFront *.obj file (generated by Autodesk ATF)

mtllib d94d6929-62e0-4178-8e53-bd57d5b85184.mtl

g Body2

v 37.999788 -1.341030 4.000000
v 37.999788 28.000000 4.000000
v 37.999788 28.000000 6.000000
v 37.999788 -27.999185 6.000000
v 37.999788 -27.999185 4.000000
v -38.000000 -27.999185 4.000000
v -38.000000 -27.999185 6.000000
v 5.289179 20.000000 6.000000
v 5.108954 18.631060 6.000000
v 4.580563 17.355411 6.000000
v 3.740014 16.259986 6.000000
v 2.644589 15.419437 6.000000
v 1.368940 14.891046 6.000000
v -0.000000 14.710821 6.000000
v -1.368940 14.891046 6.000000
v -2.644589 15.419437 6.000000
v -3.740014 16.259986 6.000000
v -4.580563 17.355411 6.000000
v -5.108954 18.631060 6.000000
v -5.289179 20.000000 6.000000
v -5.108954 21.368940 6.000000
v -4.580563 22.644589 6.000000
v -3.740014 23.740014 6.000000
v -2.644589 24.580563 6.000000
v -1.368940 25.108954 6.000000
v -0.000000 25.289179 6.000000
v 1.368940 25.108954 6.000000
v 2.644589 24.580563 6.000000
v 3.740014 23.740014 6.000000
v 4.580563 22.644589 6.000000
v 5.108954 21.368940 6.000000
v -38.000000 28.000000 6.000000
v -38.000000 -1.341030 4.000000
v 38.000000 -1.341030 4.000000
v 38.000000 28.000000 4.000000
v 5.289179 20.000000 1.000000
v 5.108954 18.631060 1.000000
v 4.580563 17.355411 1.000000
v 3.740014 16.259986 1.000000
v 2.644589 15.419437 1.000000
v 1.368940 14.891046 1.000000
v -0.000000 14.710821 1.000000
v -1.368940 14.891046 1.000000
v -2.644589 15.419437 1.000000
v -3.740014 16.259986 1.000000
v -4.580563 17.355411 1.000000
v -5.108954 18.631060 1.000000
v -5.289179 20.000000 1.000000
v -5.108954 21.368940 1.000000
v -4.580563 22.644589 1.000000
v -3.740014 23.740014 1.000000
v -2.644589 24.580563 1.000000
v -1.368940 25.108954 1.000000
v -0.000000 25.289179 1.000000
v 1.368940 25.108954 1.000000
v 2.644589 24.580563 1.000000
v 3.740014 23.740014 1.000000
v 4.580563 22.644589 1.000000
v 5.108954 21.368940 1.000000
v -38.000000 28.000000 1.000000
v -38.000000 -1.341030 1.000000
v 38.000000 28.000000 1.000000
v 38.000000 -1.341030 1.000000
vt 5.599919 0.000000 0.000000
vt 5.599919 0.200000 0.000000
vt 2.665816 0.000000 0.000000
vt 0.000000 0.200000 0.000000
vt 0.000000 0.000000 0.000000
vt 0.000000 0.000000 0.000000
vt 7.599979 0.000000 0.000000
vt 0.000000 0.200000 0.000000
vt 7.599979 0.200000 0.000000
vt -0.510906 -2.136853 0.000000
vt -0.528928 -1.999959 0.000000
vt -3.799989 -2.799959 0.000000
vt -0.510906 -1.863065 0.000000
vt -0.458067 -1.735500 0.000000
vt -0.374012 -1.625958 0.000000
vt -3.799989 2.799959 0.000000
vt -0.264470 -1.541903 0.000000
vt -0.136905 -1.489064 0.000000
vt -0.000011 -1.471041 0.000000
vt 3.799989 2.799959 0.000000
vt 0.136883 -1.489064 0.000000
vt 0.264448 -1.541903 0.000000
vt 0.373991 -1.625958 0.000000
vt 3.799989 -2.799959 0.000000
vt 0.458046 -1.735500 0.000000
vt 0.510885 -1.863065 0.000000
vt 0.528907 -1.999959 0.000000
vt 0.510885 -2.136853 0.000000
vt 0.458046 -2.264418 0.000000
vt 0.373991 -2.373961 0.000000
vt 0.264448 -2.458016 0.000000
vt 0.136883 -2.510855 0.000000
vt -0.000011 -2.528877 0.000000
vt -0.136905 -2.510855 0.000000
vt -0.264470 -2.458016 0.000000
vt -0.374012 -2.373961 0.000000
vt -0.458067 -2.264418 0.000000
vt -3.799989 0.134144 0.000000
vt 3.799989 0.134144 0.000000
vt -3.799989 2.799959 0.000000
vt 3.799989 2.799959 0.000000
vt -3.799979 1.467051 0.000000
vt -3.800000 1.467051 0.000000
vt -3.799979 -1.467051 0.000000
vt -3.800000 -1.467051 0.000000
vt 0.500000 -1.523174 0.000000
vt 0.000000 -1.523174 0.000000
vt 0.500000 -1.661644 0.000000
vt 0.000000 -1.661644 0.000000
vt 0.500000 1.661644 0.000000
vt 0.000000 1.661644 0.000000
vt 0.500000 1.523174 0.000000
vt 0.000000 1.523174 0.000000
vt 0.500000 1.384704 0.000000
vt 0.000000 1.384704 0.000000
vt 0.500000 1.246233 0.000000
vt 0.000000 1.246233 0.000000
vt 0.500000 1.107763 0.000000
vt 0.000000 1.107763 0.000000
vt 0.500000 0.969293 0.000000
vt 0.000000 0.969293 0.000000
vt 0.500000 0.830822 0.000000
vt 0.000000 0.830822 0.000000
vt 0.500000 0.692352 0.000000
vt 0.000000 0.692352 0.000000
vt 0.500000 0.553881 0.000000
vt 0.000000 0.553881 0.000000
vt 0.500000 0.415411 0.000000
vt 0.000000 0.415411 0.000000
vt 0.500000 0.276941 0.000000
vt 0.000000 0.276941 0.000000
vt 0.500000 0.138470 0.000000
vt 0.000000 0.138470 0.000000
vt 0.500000 0.000000 0.000000
vt 0.000000 0.000000 0.000000
vt 0.500000 -0.138470 0.000000
vt 0.000000 -0.138470 0.000000
vt 0.500000 -0.276941 0.000000
vt 0.000000 -0.276941 0.000000
vt 0.500000 -0.415411 0.000000
vt -0.000000 -0.415411 0.000000
vt 0.500000 -0.553881 0.000000
vt 0.000000 -0.553881 0.000000
vt 0.500000 -0.692352 0.000000
vt -0.000000 -0.692352 0.000000
vt 0.500000 -0.830822 0.000000
vt 0.000000 -0.830822 0.000000
vt 0.500000 -0.969293 0.000000
vt 0.000000 -0.969293 0.000000
vt 0.500000 -1.107763 0.000000
vt -0.000000 -1.107763 0.000000
vt 0.500000 -1.246233 0.000000
vt 0.000000 -1.246233 0.000000
vt 0.500000 -1.384704 0.000000
vt 0.000000 -1.384704 0.000000
vt 2.934103 0.000000 0.000000
vt 2.934103 0.300000 0.000000
vt -0.000000 0.000000 0.000000
vt -0.000000 0.500000 0.000000
vt 5.599919 0.500000 0.000000
vt 5.599919 0.300000 0.000000
vt -0.000000 0.300000 0.000000
vt -0.000000 0.000000 0.000000
vt 0.000021 0.300000 0.000000
vt 7.600000 0.000000 0.000000
vt 7.600000 0.500000 0.000000
vt 0.000021 0.500000 0.000000
vt -0.000000 0.000000 0.000000
vt 2.934103 0.000000 0.000000
vt 0.000000 0.300000 0.000000
vt 2.934103 0.300000 0.000000
vt 0.000000 0.300000 0.000000
vt 0.000000 0.000000 0.000000
vt 7.599979 0.300000 0.000000
vt 7.600000 0.000000 0.000000
vt 7.600000 0.300000 0.000000
vt 0.510895 -0.530157 0.000000
vt 0.528918 -0.667051 0.000000
vt 3.800000 -1.467051 0.000000
vt 0.510895 -0.803945 0.000000
vt 0.458056 -0.931510 0.000000
vt 0.374001 -1.041053 0.000000
vt 0.264459 -1.125108 0.000000
vt 0.136894 -1.177947 0.000000
vt -0.000000 -1.195969 0.000000
vt -3.800000 -1.467051 0.000000
vt -0.136894 -1.177947 0.000000
vt -0.264459 -1.125108 0.000000
vt -0.374001 -1.041053 0.000000
vt -0.458056 -0.931510 0.000000
vt -0.510895 -0.803945 0.000000
vt -0.528918 -0.667051 0.000000
vt -0.510895 -0.530157 0.000000
vt -0.458056 -0.402593 0.000000
vt -3.800000 1.467051 0.000000
vt -0.374001 -0.293050 0.000000
vt -0.264459 -0.208995 0.000000
vt -0.136894 -0.156156 0.000000
vt -0.000000 -0.138134 0.000000
vt 3.800000 1.467051 0.000000
vt 0.136894 -0.156156 0.000000
vt 0.264459 -0.208995 0.000000
vt 0.374001 -0.293050 0.000000
vt 0.458056 -0.402593 0.000000
vn 0.100000 0.000000 0.000000
vn 0.100000 0.000000 0.000000
vn 0.100000 0.000000 0.000000
vn 0.100000 0.000000 0.000000
vn 0.100000 0.000000 0.000000
vn 0.000000 -0.100000 0.000000
vn 0.000000 -0.100000 0.000000
vn 0.000000 -0.100000 0.000000
vn 0.000000 -0.100000 0.000000
vn 0.000000 0.000000 0.100000
vn 0.000000 0.000000 0.100000
vn 0.000000 0.000000 0.100000
vn 0.000000 0.000000 0.100000
vn 0.000000 0.000000 0.100000
vn 0.000000 0.000000 0.100000
vn 0.000000 0.000000 0.100000
vn 0.000000 0.000000 0.100000
vn 0.000000 0.000000 0.100000
vn 0.000000 0.000000 0.100000
vn 0.000000 0.000000 0.100000
vn 0.000000 0.000000 0.100000
vn 0.000000 0.000000 0.100000
vn 0.000000 0.000000 0.100000
vn 0.000000 0.000000 0.100000
vn 0.000000 0.000000 0.100000
vn 0.000000 0.000000 0.100000
vn 0.000000 0.000000 0.100000
vn 0.000000 0.000000 0.100000
vn 0.000000 0.000000 0.100000
vn 0.000000 0.000000 0.100000
vn 0.000000 0.000000 0.100000
vn 0.000000 0.000000 0.100000
vn 0.000000 0.000000 0.100000
vn 0.000000 0.000000 0.100000
vn 0.000000 0.000000 0.100000
vn 0.000000 0.000000 0.100000
vn 0.000000 0.000000 0.100000
vn 0.000000 0.000000 -0.100000
vn 0.000000 0.000000 -0.100000
vn 0.000000 0.000000 -0.100000
vn 0.000000 0.000000 -0.100000
vn 0.000000 0.000000 0.100000
vn 0.000000 0.000000 0.100000
vn 0.000000 0.000000 0.100000
vn 0.000000 0.000000 0.100000
vn -0.096593 -0.025882 0.000000
vn -0.096593 -0.025882 0.000000
vn -0.100000 -0.000000 0.000000
vn -0.100000 -0.000000 0.000000
vn -0.096593 0.025882 0.000000
vn -0.096593 0.025882 0.000000
vn -0.086603 0.050000 0.000000
vn -0.086603 0.050000 0.000000
vn -0.070711 0.070711 0.000000
vn -0.070711 0.070711 0.000000
vn -0.050000 0.086603 0.000000
vn -0.050000 0.086603 0.000000
vn -0.025882 0.096593 0.000000
vn -0.025882 0.096593 0.000000
vn 0.000000 0.100000 0.000000
vn 0.000000 0.100000 0.000000
vn 0.025882 0.096593 0.000000
vn 0.025882 0.096593 0.000000
vn 0.050000 0.086603 0.000000
vn 0.050000 0.086603 0.000000
vn 0.070711 0.070711 0.000000
vn 0.070711 0.070711 0.000000
vn 0.086603 0.050000 0.000000
vn 0.086603 0.050000 0.000000
vn 0.096593 0.025882 0.000000
vn 0.096593 0.025882 0.000000
vn 0.100000 0.000000 0.000000
vn 0.100000 0.000000 0.000000
vn 0.096593 -0.025882 0.000000
vn 0.096593 -0.025882 0.000000
vn 0.086603 -0.050000 0.000000
vn 0.086603 -0.050000 0.000000
vn 0.070711 -0.070711 0.000000
vn 0.070711 -0.070711 0.000000
vn 0.050000 -0.086603 0.000000
vn 0.050000 -0.086603 0.000000
vn 0.025882 -0.096593 0.000000
vn 0.025882 -0.096593 0.000000
vn 0.000000 -0.100000 0.000000
vn 0.000000 -0.100000 0.000000
vn -0.025882 -0.096593 0.000000
vn -0.025882 -0.096593 0.000000
vn -0.050000 -0.086603 0.000000
vn -0.050000 -0.086603 0.000000
vn -0.070711 -0.070711 0.000000
vn -0.070711 -0.070711 0.000000
vn -0.086603 -0.050000 0.000000
vn -0.086603 -0.050000 0.000000
vn -0.100000 0.000000 0.000000
vn -0.100000 0.000000 0.000000
vn -0.100000 0.000000 0.000000
vn -0.100000 0.000000 0.000000
vn -0.100000 0.000000 0.000000
vn -0.100000 0.000000 0.000000
vn 0.000000 0.100000 0.000000
vn 0.000000 0.100000 0.000000
vn 0.000000 0.100000 0.000000
vn 0.000000 0.100000 0.000000
vn 0.000000 0.100000 0.000000
vn 0.000000 0.100000 0.000000
vn 0.100000 0.000000 0.000000
vn 0.100000 0.000000 0.000000
vn 0.100000 0.000000 0.000000
vn 0.100000 0.000000 0.000000
vn -0.000000 -0.100000 0.000000
vn -0.000000 -0.100000 0.000000
vn -0.000000 -0.100000 0.000000
vn -0.000000 -0.100000 0.000000
vn -0.000000 -0.100000 0.000000
vn 0.000000 0.000000 -0.100000
vn 0.000000 0.000000 -0.100000
vn 0.000000 0.000000 -0.100000
vn 0.000000 0.000000 -0.100000
vn 0.000000 0.000000 -0.100000
vn 0.000000 0.000000 -0.100000
vn 0.000000 0.000000 -0.100000
vn 0.000000 0.000000 -0.100000
vn 0.000000 0.000000 -0.100000
vn 0.000000 0.000000 -0.100000
vn 0.000000 0.000000 -0.100000
vn 0.000000 0.000000 -0.100000
vn 0.000000 0.000000 -0.100000
vn 0.000000 0.000000 -0.100000
vn 0.000000 0.000000 -0.100000
vn 0.000000 0.000000 -0.100000
vn 0.000000 0.000000 -0.100000
vn 0.000000 0.000000 -0.100000
vn 0.000000 0.000000 -0.100000
vn 0.000000 0.000000 -0.100000
vn 0.000000 0.000000 -0.100000
vn 0.000000 0.000000 -0.100000
vn 0.000000 0.000000 -0.100000
vn 0.000000 0.000000 -0.100000
vn 0.000000 0.000000 -0.100000
vn 0.000000 0.000000 -0.100000
vn 0.000000 0.000000 -0.100000
vn 0.000000 0.000000 -0.100000
usemtl Steel_-_Satin
f 2/1/1 3/2/2 1/3/3
f 1/3/3 3/2/2 4/4/4
f 1/3/3 4/4/4 5/5/5
f 6/6/6 5/7/7 7/8/8
f 7/8/8 5/7/7 4/9/9
f 31/10/10 8/11/11 3/12/12
f 3/12/12 8/11/11 9/13/13
f 3/12/12 9/13/13 10/14/14
f 10/14/14 11/15/15 3/12/12
f 3/12/12 11/15/15 4/16/16
f 4/16/16 11/15/15 12/17/17
f 4/16/16 12/17/17 13/18/18
f 13/18/18 14/19/19 4/16/16
f 4/16/16 14/19/19 7/20/20
f 7/20/20 14/19/19 15/21/21
f 7/20/20 15/21/21 16/22/22
f 16/22/22 17/23/23 7/20/20
f 7/20/20 17/23/23 32/24/24
f 32/24/24 17/23/23 18/25/25
f 32/24/24 18/25/25 19/26/26
f 19/26/26 20/27/27 32/24/24
f 32/24/24 20/27/27 21/28/28
f 32/24/24 21/28/28 22/29/29
f 22/29/29 23/30/30 32/24/24
f 32/24/24 23/30/30 24/31/31
f 32/24/24 24/31/31 25/32/32
f 25/32/32 26/33/33 32/24/24
f 32/24/24 26/33/33 3/12/12
f 3/12/12 26/33/33 27/34/34
f 3/12/12 27/34/34 28/35/35
f 28/35/35 29/36/36 3/12/12
f 3/12/12 29/36/36 30/37/37
f 3/12/12 30/37/37 31/10/10
f 33/38/38 1/39/39 6/40/40
f 6/40/40 1/39/39 5/41/41
f 1/42/42 34/43/43 2/44/44
f 2/44/44 34/43/43 35/45/45
f 31/46/46 59/47/47 8/48/48
f 8/48/48 59/47/47 36/49/49
f 8/50/48 36/51/49 9/52/50
f 9/52/50 36/51/49 37/53/51
f 9/52/50 37/53/51 10/54/52
f 10/54/52 37/53/51 38/55/53
f 10/54/52 38/55/53 11/56/54
f 11/56/54 38/55/53 39/57/55
f 11/56/54 39/57/55 12/58/56
f 12/58/56 39/57/55 40/59/57
f 12/58/56 40/59/57 13/60/58
f 13/60/58 40/59/57 41/61/59
f 13/60/58 41/61/59 14/62/60
f 14/62/60 41/61/59 42/63/61
f 14/62/60 42/63/61 15/64/62
f 15/64/62 42/63/61 43/65/63
f 15/64/62 43/65/63 16/66/64
f 16/66/64 43/65/63 44/67/65
f 16/66/64 44/67/65 17/68/66
f 17/68/66 44/67/65 45/69/67
f 17/68/66 45/69/67 18/70/68
f 18/70/68 45/69/67 46/71/69
f 18/70/68 46/71/69 19/72/70
f 19/72/70 46/71/69 47/73/71
f 19/72/70 47/73/71 20/74/72
f 20/74/72 47/73/71 48/75/73
f 20/74/72 48/75/73 21/76/74
f 21/76/74 48/75/73 49/77/75
f 21/76/74 49/77/75 22/78/76
f 22/78/76 49/77/75 50/79/77
f 22/78/76 50/79/77 23/80/78
f 23/80/78 50/79/77 51/81/79
f 23/80/78 51/81/79 24/82/80
f 24/82/80 51/81/79 52/83/81
f 24/82/80 52/83/81 25/84/82
f 25/84/82 52/83/81 53/85/83
f 25/84/82 53/85/83 26/86/84
f 26/86/84 53/85/83 54/87/85
f 26/86/84 54/87/85 27/88/86
f 27/88/86 54/87/85 55/89/87
f 27/88/86 55/89/87 28/90/88
f 28/90/88 55/89/87 56/91/89
f 28/90/88 56/91/89 29/92/90
f 29/92/90 56/91/89 57/93/91
f 29/92/90 57/93/91 30/94/92
f 30/94/92 57/93/91 58/95/93
f 30/94/92 58/95/93 31/46/46
f 31/46/46 58/95/93 59/47/47
f 61/96/94 33/97/95 60/98/96
f 60/98/96 33/97/95 32/99/97
f 32/99/97 33/97/95 7/100/98
f 7/100/98 33/97/95 6/101/99
f 35/102/100 62/103/101 2/104/102
f 2/104/102 62/103/101 60/105/103
f 2/104/102 60/105/103 32/106/104
f 32/106/104 3/107/105 2/104/102
f 63/108/106 62/109/107 34/110/108
f 34/110/108 62/109/107 35/111/109
f 33/112/110 61/113/111 1/114/112
f 1/114/112 61/113/111 63/115/113
f 1/114/112 63/115/113 34/116/114
f 37/117/115 36/118/116 62/119/117
f 62/119/117 36/118/116 59/120/118
f 62/119/117 59/120/118 58/121/119
f 58/121/119 57/122/120 62/119/117
f 62/119/117 57/122/120 56/123/121
f 62/119/117 56/123/121 55/124/122
f 55/124/122 54/125/123 62/119/117
f 62/119/117 54/125/123 60/126/124
f 60/126/124 54/125/123 53/127/125
f 60/126/124 53/127/125 52/128/126
f 52/128/126 51/129/127 60/126/124
f 60/126/124 51/129/127 50/130/128
f 60/126/124 50/130/128 49/131/129
f 49/131/129 48/132/130 60/126/124
f 60/126/124 48/132/130 47/133/131
f 60/126/124 47/133/131 46/134/132
f 60/126/124 46/134/132 61/135/133
f 61/135/133 46/134/132 45/136/134
f 61/135/133 45/136/134 44/137/135
f 44/137/135 43/138/136 61/135/133
f 61/135/133 43/138/136 42/139/137
f 61/135/133 42/139/137 63/140/138
f 63/140/138 42/139/137 41/141/139
f 63/140/138 41/141/139 40/142/140
f 40/142/140 39/143/141 63/140/138
f 63/140/138 39/143/141 38/144/142
f 63/140/138 38/144/142 62/119/117
f 62/119/117 38/144/142 37/117/115
g Body3

v -35.000000 25.000000 4.000000
v -1.724937 25.000000 4.000000
v -1.724937 25.000000 9.000000
v -35.000000 25.000000 9.000000
v -35.000000 -24.999185 4.000000
v -35.000000 -24.999185 9.000000
v 34.999788 -24.999185 4.000000
v 34.999788 -24.999185 9.000000
v 34.999788 25.000000 4.000000
v 34.999788 25.000000 9.000000
v 1.724937 25.000000 4.000000
v 1.724937 25.000000 9.000000
v -0.584496 25.256784 4.000000
v 0.584496 25.256784 4.000000
v 0.584496 25.256784 9.000000
v -0.584496 25.256784 9.000000
v 36.499788 -26.499185 4.000000
v 36.499788 26.500000 4.000000
v 36.499788 26.500000 9.000000
v 36.499788 -26.499185 9.000000
v -36.500000 -26.499185 4.000000
v -36.500000 -26.499185 9.000000
v -36.500000 26.500000 4.000000
v -36.500000 26.500000 9.000000
vt 0.000000 0.000000 0.000000
vt 3.327506 0.000000 0.000000
vt 0.000000 0.500000 0.000000
vt 3.327506 0.500000 0.000000
vt 0.000000 0.000000 0.000000
vt 4.999919 0.000000 0.000000
vt 0.000000 0.500000 0.000000
vt 4.999919 0.500000 0.000000
vt 0.000000 0.000000 0.000000
vt 6.999979 0.000000 0.000000
vt 0.000000 0.500000 0.000000
vt 6.999979 0.500000 0.000000
vt 0.000000 0.000000 0.000000
vt 4.999919 0.000000 0.000000
vt 0.000000 0.500000 0.000000
vt 4.999919 0.500000 0.000000
vt 0.000000 0.000000 0.000000
vt 3.327485 0.000000 0.000000
vt 0.000000 0.500000 0.000000
vt 3.327485 0.500000 0.000000
vt 0.500000 -0.655114 0.000000
vt 0.000000 -0.655114 0.000000
vt 0.500000 -0.772253 0.000000
vt 0.000000 -0.772253 0.000000
vt 0.500000 -0.889391 0.000000
vt 0.000000 -0.889391 0.000000
vt 0.500000 -1.006530 0.000000
vt 0.000000 -1.006530 0.000000
vt 0.000000 0.000000 0.000000
vt 5.299919 0.000000 0.000000
vt 0.000000 0.500000 0.000000
vt 5.299919 0.500000 0.000000
vt 0.000000 0.000000 0.000000
vt 7.299979 0.000000 0.000000
vt 0.000000 0.500000 0.000000
vt 7.299979 0.500000 0.000000
vt -0.000000 0.000000 0.000000
vt 5.299919 0.000000 0.000000
vt -0.000000 0.500000 0.000000
vt 5.299919 0.500000 0.000000
vt -0.000000 0.000000 0.000000
vt 7.299979 0.000000 0.000000
vt -0.000000 0.500000 0.000000
vt 7.299979 0.500000 0.000000
vt 3.499989 -2.499959 0.000000
vt 0.172483 -2.499959 0.000000
vt 3.649989 -2.649959 0.000000
vt 0.058439 -2.525638 0.000000
vt -3.649989 -2.649959 0.000000
vt -0.058460 -2.525638 0.000000
vt -0.172504 -2.499959 0.000000
vt -3.499989 -2.499959 0.000000
vt -3.499989 2.499959 0.000000
vt -3.649989 2.649959 0.000000
vt 3.499989 2.499959 0.000000
vt 3.649989 2.649959 0.000000
vt 3.499989 -2.499959 0.000000
vt 0.172504 -2.499959 0.000000
vt 3.649989 -2.649959 0.000000
vt 0.058460 -2.525638 0.000000
vt -0.058439 -2.525638 0.000000
vt -3.649989 -2.649959 0.000000
vt -0.172483 -2.499959 0.000000
vt -3.499989 -2.499959 0.000000
vt -3.499989 2.499959 0.000000
vt -3.649989 2.649959 0.000000
vt 3.499989 2.499959 0.000000
vt 3.649989 2.649959 0.000000
vn 0.000000 -0.100000 0.000000
vn 0.000000 -0.100000 0.000000
vn 0.000000 -0.100000 0.000000
vn 0.000000 -0.100000 0.000000
vn 0.100000 0.000000 0.000000
vn 0.100000 0.000000 0.000000
vn 0.100000 0.000000 0.000000
vn 0.100000 0.000000 0.000000
vn 0.000000 0.100000 0.000000
vn 0.000000 0.100000 0.000000
vn 0.000000 0.100000 0.000000
vn 0.000000 0.100000 0.000000
vn -0.100000 0.000000 0.000000
vn -0.100000 0.000000 0.000000
vn -0.100000 0.000000 0.000000
vn -0.100000 0.000000 0.000000
vn 0.000000 -0.100000 0.000000
vn 0.000000 -0.100000 0.000000
vn 0.000000 -0.100000 0.000000
vn 0.000000 -0.100000 0.000000
vn 0.032613 -0.094533 0.000000
vn 0.032613 -0.094533 0.000000
vn 0.011051 -0.099388 0.000000
vn 0.011051 -0.099388 0.000000
vn -0.011051 -0.099388 0.000000
vn -0.011051 -0.099388 0.000000
vn -0.032613 -0.094533 0.000000
vn -0.032613 -0.094533 0.000000
vn 0.100000 0.000000 0.000000
vn 0.100000 0.000000 0.000000
vn 0.100000 0.000000 0.000000
vn 0.100000 0.000000 0.000000
vn 0.000000 -0.100000 0.000000
vn 0.000000 -0.100000 0.000000
vn 0.000000 -0.100000 0.000000
vn 0.000000 -0.100000 0.000000
vn -0.100000 0.000000 0.000000
vn -0.100000 0.000000 0.000000
vn -0.100000 0.000000 0.000000
vn -0.100000 0.000000 0.000000
vn -0.000000 0.100000 0.000000
vn -0.000000 0.100000 0.000000
vn -0.000000 0.100000 0.000000
vn -0.000000 0.100000 0.000000
vn 0.000000 0.000000 0.100000
vn 0.000000 0.000000 0.100000
vn 0.000000 0.000000 0.100000
vn 0.000000 0.000000 0.100000
vn 0.000000 0.000000 0.100000
vn 0.000000 0.000000 0.100000
vn 0.000000 0.000000 0.100000
vn 0.000000 0.000000 0.100000
vn 0.000000 0.000000 0.100000
vn 0.000000 0.000000 0.100000
vn 0.000000 0.000000 0.100000
vn 0.000000 0.000000 0.100000
vn 0.000000 0.000000 -0.100000
vn 0.000000 0.000000 -0.100000
vn 0.000000 0.000000 -0.100000
vn 0.000000 0.000000 -0.100000
vn 0.000000 0.000000 -0.100000
vn 0.000000 0.000000 -0.100000
vn 0.000000 0.000000 -0.100000
vn 0.000000 0.000000 -0.100000
vn 0.000000 0.000000 -0.100000
vn 0.000000 0.000000 -0.100000
vn 0.000000 0.000000 -0.100000
vn 0.000000 0.000000 -0.100000
f 64/145/143 65/146/144 67/147/145
f 67/147/145 65/146/144 66/148/146
f 68/149/147 64/150/148 69/151/149
f 69/151/149 64/150/148 67/152/150
f 70/153/151 68/154/152 71/155/153
f 71/155/153 68/154/152 69/156/154
f 72/157/155 70/158/156 73/159/157
f 73/159/157 70/158/156 71/160/158
f 74/161/159 72/162/160 75/163/161
f 75/163/161 72/162/160 73/164/162
f 66/165/163 65/166/164 79/167/165
f 79/167/165 65/166/164 76/168/166
f 79/167/165 76/168/166 78/169/167
f 78/169/167 76/168/166 77/170/168
f 78/169/167 77/170/168 75/171/169
f 75/171/169 77/170/168 74/172/170
f 80/173/171 81/174/172 83/175/173
f 83/175/173 81/174/172 82/176/174
f 84/177/175 80/178/176 85/179/177
f 85/179/177 80/178/176 83/180/178
f 86/181/179 84/182/180 87/183/181
f 87/183/181 84/182/180 85/184/182
f 81/185/183 86/186/184 82/187/185
f 82/187/185 86/186/184 87/188/186
f 67/189/187 66/190/188 87/191/189
f 87/191/189 66/190/188 79/192/190
f 87/191/189 79/192/190 82/193/191
f 82/193/191 79/192/190 78/194/192
f 82/193/191 78/194/192 75/195/193
f 75/195/193 73/196/194 82/193/191
f 82/193/191 73/196/194 71/197/195
f 82/193/191 71/197/195 83/198/196
f 83/198/196 71/197/195 69/199/197
f 83/198/196 69/199/197 85/200/198
f 85/200/198 69/199/197 87/191/189
f 87/191/189 69/199/197 67/189/187
f 72/201/199 74/202/200 81/203/201
f 81/203/201 74/202/200 77/204/202
f 81/203/201 77/204/202 76/205/203
f 81/203/201 76/205/203 86/206/204
f 86/206/204 76/205/203 65/207/205
f 86/206/204 65/207/205 64/208/206
f 64/208/206 68/209/207 86/206/204
f 86/206/204 68/209/207 84/210/208
f 84/210/208 68/209/207 70/211/209
f 84/210/208 70/211/209 80/212/210
f 80/212/210 70/211/209 81/203/201
f 81/203/201 70/211/209 72/201/199
# 87 vertices
# 212 texture params
# 210 normals
# 174 facets

# 2 groups
